<svg width="200" height="51" viewBox="0 0 200 51" fill="none" xmlns="http://www.w3.org/2000/svg">
<g filter="url(#filter0_di_1_5325)">
<path d="M14.5304 11.7833C14.6906 11.3457 15.3094 11.3457 15.4696 11.7833L18.5347 20.1604C18.6045 20.3513 18.7829 20.4809 18.9859 20.4883L27.9002 20.8147C28.3659 20.8318 28.5571 21.4204 28.1904 21.7079L21.1705 27.2117C21.0106 27.337 20.9425 27.5467 20.9981 27.7422L23.4423 36.321C23.57 36.7692 23.0693 37.1329 22.6826 36.873L15.2789 31.8974C15.1102 31.7841 14.8898 31.7841 14.7211 31.8974L7.31741 36.873C6.93067 37.1329 6.42998 36.7692 6.55766 36.321L9.00187 27.7422C9.05755 27.5467 8.98941 27.337 8.8295 27.2117L1.80956 21.7079C1.44286 21.4204 1.63411 20.8318 2.09976 20.8147L11.0141 20.4883C11.2171 20.4809 11.3955 20.3513 11.4653 20.1604L14.5304 11.7833Z" fill="black"/>
<path d="M14.7656 11.8691C14.8358 11.6777 15.0816 11.6538 15.1953 11.7979L15.2344 11.8691L18.2998 20.2461C18.3914 20.4965 18.6077 20.6769 18.8643 20.7256L18.9766 20.7383L27.8906 21.0645C28.0945 21.0719 28.1934 21.2984 28.0918 21.4512L28.0361 21.5107L21.0166 27.0146C20.8067 27.1793 20.7022 27.441 20.7354 27.7002L20.7578 27.8105L23.2021 36.3896C23.2579 36.5856 23.073 36.7494 22.8965 36.7002L22.8223 36.666L15.418 31.6895C15.1967 31.541 14.9158 31.5223 14.6797 31.6338L14.582 31.6895L7.17773 36.666C7.00849 36.7794 6.79562 36.6539 6.78809 36.4707L6.79785 36.3896L9.24219 27.8105C9.31524 27.5541 9.2465 27.281 9.06738 27.0908L8.9834 27.0146L1.96387 21.5107C1.8036 21.3849 1.85654 21.144 2.02832 21.0801L2.10938 21.0645L11.0234 20.7383C11.2897 20.7285 11.5278 20.5785 11.6533 20.3496L11.7002 20.2461L14.7656 11.8691Z" stroke="#B5993A" stroke-width="0.5"/>
</g>
<g filter="url(#filter1_di_1_5325)">
<path d="M54.5304 11.7833C54.6906 11.3457 55.3094 11.3457 55.4696 11.7833L58.5347 20.1604C58.6045 20.3513 58.7829 20.4809 58.9859 20.4883L67.9002 20.8147C68.3659 20.8318 68.5571 21.4204 68.1904 21.7079L61.1705 27.2117C61.0106 27.337 60.9425 27.5467 60.9981 27.7422L63.4423 36.321C63.57 36.7692 63.0693 37.1329 62.6826 36.873L55.2789 31.8974C55.1102 31.7841 54.8898 31.7841 54.7211 31.8974L47.3174 36.873C46.9307 37.1329 46.43 36.7692 46.5577 36.321L49.0019 27.7422C49.0575 27.5467 48.9894 27.337 48.8295 27.2117L41.8096 21.7079C41.4429 21.4204 41.6341 20.8318 42.0998 20.8147L51.0141 20.4883C51.2171 20.4809 51.3955 20.3513 51.4653 20.1604L54.5304 11.7833Z" fill="black"/>
<path d="M54.7656 11.8691C54.8358 11.6777 55.0816 11.6538 55.1953 11.7979L55.2344 11.8691L58.2998 20.2461C58.3914 20.4965 58.6077 20.6769 58.8643 20.7256L58.9766 20.7383L67.8906 21.0645C68.0945 21.0719 68.1934 21.2984 68.0918 21.4512L68.0361 21.5107L61.0166 27.0146C60.8067 27.1793 60.7022 27.441 60.7354 27.7002L60.7578 27.8105L63.2021 36.3896C63.2579 36.5856 63.073 36.7494 62.8965 36.7002L62.8223 36.666L55.418 31.6895C55.1967 31.541 54.9158 31.5223 54.6797 31.6338L54.582 31.6895L47.1777 36.666C47.0085 36.7794 46.7956 36.6539 46.7881 36.4707L46.7979 36.3896L49.2422 27.8105C49.3152 27.5541 49.2465 27.281 49.0674 27.0908L48.9834 27.0146L41.9639 21.5107C41.8036 21.3849 41.8565 21.144 42.0283 21.0801L42.1094 21.0645L51.0234 20.7383C51.2897 20.7285 51.5278 20.5785 51.6533 20.3496L51.7002 20.2461L54.7656 11.8691Z" stroke="#B5993A" stroke-width="0.5"/>
</g>
<g filter="url(#filter2_di_1_5325)">
<path d="M94.5304 11.7833C94.6906 11.3457 95.3094 11.3457 95.4696 11.7833L98.5347 20.1604C98.6045 20.3513 98.7829 20.4809 98.9859 20.4883L107.9 20.8147C108.366 20.8318 108.557 21.4204 108.19 21.7079L101.17 27.2117C101.011 27.337 100.942 27.5467 100.998 27.7422L103.442 36.321C103.57 36.7692 103.069 37.1329 102.683 36.873L95.2789 31.8974C95.1102 31.7841 94.8898 31.7841 94.7211 31.8974L87.3174 36.873C86.9307 37.1329 86.43 36.7692 86.5577 36.321L89.0019 27.7422C89.0575 27.5467 88.9894 27.337 88.8295 27.2117L81.8096 21.7079C81.4429 21.4204 81.6341 20.8318 82.0998 20.8147L91.0141 20.4883C91.2171 20.4809 91.3955 20.3513 91.4653 20.1604L94.5304 11.7833Z" fill="black"/>
<path d="M94.7656 11.8691C94.8358 11.6777 95.0816 11.6538 95.1953 11.7979L95.2344 11.8691L98.2998 20.2461C98.3914 20.4965 98.6077 20.6769 98.8643 20.7256L98.9766 20.7383L107.891 21.0645C108.094 21.0719 108.193 21.2984 108.092 21.4512L108.036 21.5107L101.017 27.0146C100.807 27.1793 100.702 27.441 100.735 27.7002L100.758 27.8105L103.202 36.3896C103.258 36.5856 103.073 36.7494 102.896 36.7002L102.822 36.666L95.418 31.6895C95.1967 31.541 94.9158 31.5223 94.6797 31.6338L94.582 31.6895L87.1777 36.666C87.0085 36.7794 86.7956 36.6539 86.7881 36.4707L86.7979 36.3896L89.2422 27.8105C89.3152 27.5541 89.2465 27.281 89.0674 27.0908L88.9834 27.0146L81.9639 21.5107C81.8036 21.3849 81.8565 21.144 82.0283 21.0801L82.1094 21.0645L91.0234 20.7383C91.2897 20.7285 91.5278 20.5785 91.6533 20.3496L91.7002 20.2461L94.7656 11.8691Z" stroke="#B5993A" stroke-width="0.5"/>
</g>
<g filter="url(#filter3_di_1_5325)">
<path d="M134.53 11.7833C134.691 11.3457 135.309 11.3457 135.47 11.7833L138.535 20.1604C138.605 20.3513 138.783 20.4809 138.986 20.4883L147.9 20.8147C148.366 20.8318 148.557 21.4204 148.19 21.7079L141.17 27.2117C141.011 27.337 140.942 27.5467 140.998 27.7422L143.442 36.321C143.57 36.7692 143.069 37.1329 142.683 36.873L135.279 31.8974C135.11 31.7841 134.89 31.7841 134.721 31.8974L127.317 36.873C126.931 37.1329 126.43 36.7692 126.558 36.321L129.002 27.7422C129.058 27.5467 128.989 27.337 128.83 27.2117L121.81 21.7079C121.443 21.4204 121.634 20.8318 122.1 20.8147L131.014 20.4883C131.217 20.4809 131.395 20.3513 131.465 20.1604L134.53 11.7833Z" fill="black"/>
<path d="M134.766 11.8691C134.836 11.6777 135.082 11.6538 135.195 11.7979L135.234 11.8691L138.3 20.2461C138.391 20.4965 138.608 20.6769 138.864 20.7256L138.977 20.7383L147.891 21.0645C148.094 21.0719 148.193 21.2984 148.092 21.4512L148.036 21.5107L141.017 27.0146C140.807 27.1793 140.702 27.441 140.735 27.7002L140.758 27.8105L143.202 36.3896C143.258 36.5856 143.073 36.7494 142.896 36.7002L142.822 36.666L135.418 31.6895C135.197 31.541 134.916 31.5223 134.68 31.6338L134.582 31.6895L127.178 36.666C127.008 36.7794 126.796 36.6539 126.788 36.4707L126.798 36.3896L129.242 27.8105C129.315 27.5541 129.246 27.281 129.067 27.0908L128.983 27.0146L121.964 21.5107C121.804 21.3849 121.857 21.144 122.028 21.0801L122.109 21.0645L131.023 20.7383C131.29 20.7285 131.528 20.5785 131.653 20.3496L131.7 20.2461L134.766 11.8691Z" stroke="#B5993A" stroke-width="0.5"/>
</g>
<g filter="url(#filter4_d_1_5325)">
<path d="M174.53 11.7833C174.691 11.3457 175.309 11.3457 175.47 11.7833L178.535 20.1604C178.605 20.3513 178.783 20.4809 178.986 20.4883L187.9 20.8147C188.366 20.8318 188.557 21.4204 188.19 21.7079L181.17 27.2117C181.011 27.337 180.942 27.5467 180.998 27.7422L183.442 36.321C183.57 36.7692 183.069 37.1329 182.683 36.873L175.279 31.8974C175.11 31.7841 174.89 31.7841 174.721 31.8974L167.317 36.873C166.931 37.1329 166.43 36.7692 166.558 36.321L169.002 27.7422C169.058 27.5467 168.989 27.337 168.83 27.2117L161.81 21.7079C161.443 21.4204 161.634 20.8318 162.1 20.8147L171.014 20.4883C171.217 20.4809 171.395 20.3513 171.465 20.1604L174.53 11.7833Z" fill="white"/>
<path d="M174.766 11.8691C174.836 11.6777 175.082 11.6538 175.195 11.7979L175.234 11.8691L178.3 20.2461C178.391 20.4965 178.608 20.6769 178.864 20.7256L178.977 20.7383L187.891 21.0645C188.094 21.0719 188.193 21.2984 188.092 21.4512L188.036 21.5107L181.017 27.0146C180.807 27.1793 180.702 27.441 180.735 27.7002L180.758 27.8105L183.202 36.3896C183.258 36.5856 183.073 36.7494 182.896 36.7002L182.822 36.666L175.418 31.6895C175.197 31.541 174.916 31.5223 174.68 31.6338L174.582 31.6895L167.178 36.666C167.008 36.7794 166.796 36.6539 166.788 36.4707L166.798 36.3896L169.242 27.8105C169.315 27.5541 169.246 27.281 169.067 27.0908L168.983 27.0146L161.964 21.5107C161.804 21.3849 161.857 21.144 162.028 21.0801L162.109 21.0645L171.023 20.7383C171.29 20.7285 171.528 20.5785 171.653 20.3496L171.7 20.2461L174.766 11.8691Z" stroke="#777777" stroke-width="0.5"/>
</g>
<defs>
<filter id="filter0_di_1_5325" x="1.11719" y="10.9551" width="28.7656" height="27.5049" filterUnits="userSpaceOnUse" color-interpolation-filters="sRGB">
<feFlood flood-opacity="0" result="BackgroundImageFix"/>
<feColorMatrix in="SourceAlpha" type="matrix" values="0 0 0 0 0 0 0 0 0 0 0 0 0 0 0 0 0 0 127 0" result="hardAlpha"/>
<feOffset dx="0.5" dy="0.5"/>
<feGaussianBlur stdDeviation="0.5"/>
<feComposite in2="hardAlpha" operator="out"/>
<feColorMatrix type="matrix" values="0 0 0 0 0 0 0 0 0 0 0 0 0 0 0 0 0 0 0.4 0"/>
<feBlend mode="normal" in2="BackgroundImageFix" result="effect1_dropShadow_1_5325"/>
<feBlend mode="normal" in="SourceGraphic" in2="effect1_dropShadow_1_5325" result="shape"/>
<feColorMatrix in="SourceAlpha" type="matrix" values="0 0 0 0 0 0 0 0 0 0 0 0 0 0 0 0 0 0 127 0" result="hardAlpha"/>
<feOffset dx="1" dy="1"/>
<feGaussianBlur stdDeviation="0.5"/>
<feComposite in2="hardAlpha" operator="arithmetic" k2="-1" k3="1"/>
<feColorMatrix type="matrix" values="0 0 0 0 1 0 0 0 0 1 0 0 0 0 1 0 0 0 0.6 0"/>
<feBlend mode="normal" in2="shape" result="effect2_innerShadow_1_5325"/>
</filter>
<filter id="filter1_di_1_5325" x="41.1172" y="10.9551" width="28.7656" height="27.5049" filterUnits="userSpaceOnUse" color-interpolation-filters="sRGB">
<feFlood flood-opacity="0" result="BackgroundImageFix"/>
<feColorMatrix in="SourceAlpha" type="matrix" values="0 0 0 0 0 0 0 0 0 0 0 0 0 0 0 0 0 0 127 0" result="hardAlpha"/>
<feOffset dx="0.5" dy="0.5"/>
<feGaussianBlur stdDeviation="0.5"/>
<feComposite in2="hardAlpha" operator="out"/>
<feColorMatrix type="matrix" values="0 0 0 0 0 0 0 0 0 0 0 0 0 0 0 0 0 0 0.4 0"/>
<feBlend mode="normal" in2="BackgroundImageFix" result="effect1_dropShadow_1_5325"/>
<feBlend mode="normal" in="SourceGraphic" in2="effect1_dropShadow_1_5325" result="shape"/>
<feColorMatrix in="SourceAlpha" type="matrix" values="0 0 0 0 0 0 0 0 0 0 0 0 0 0 0 0 0 0 127 0" result="hardAlpha"/>
<feOffset dx="1" dy="1"/>
<feGaussianBlur stdDeviation="0.5"/>
<feComposite in2="hardAlpha" operator="arithmetic" k2="-1" k3="1"/>
<feColorMatrix type="matrix" values="0 0 0 0 1 0 0 0 0 1 0 0 0 0 1 0 0 0 0.6 0"/>
<feBlend mode="normal" in2="shape" result="effect2_innerShadow_1_5325"/>
</filter>
<filter id="filter2_di_1_5325" x="81.1172" y="10.9551" width="28.7656" height="27.5049" filterUnits="userSpaceOnUse" color-interpolation-filters="sRGB">
<feFlood flood-opacity="0" result="BackgroundImageFix"/>
<feColorMatrix in="SourceAlpha" type="matrix" values="0 0 0 0 0 0 0 0 0 0 0 0 0 0 0 0 0 0 127 0" result="hardAlpha"/>
<feOffset dx="0.5" dy="0.5"/>
<feGaussianBlur stdDeviation="0.5"/>
<feComposite in2="hardAlpha" operator="out"/>
<feColorMatrix type="matrix" values="0 0 0 0 0 0 0 0 0 0 0 0 0 0 0 0 0 0 0.4 0"/>
<feBlend mode="normal" in2="BackgroundImageFix" result="effect1_dropShadow_1_5325"/>
<feBlend mode="normal" in="SourceGraphic" in2="effect1_dropShadow_1_5325" result="shape"/>
<feColorMatrix in="SourceAlpha" type="matrix" values="0 0 0 0 0 0 0 0 0 0 0 0 0 0 0 0 0 0 127 0" result="hardAlpha"/>
<feOffset dx="1" dy="1"/>
<feGaussianBlur stdDeviation="0.5"/>
<feComposite in2="hardAlpha" operator="arithmetic" k2="-1" k3="1"/>
<feColorMatrix type="matrix" values="0 0 0 0 1 0 0 0 0 1 0 0 0 0 1 0 0 0 0.6 0"/>
<feBlend mode="normal" in2="shape" result="effect2_innerShadow_1_5325"/>
</filter>
<filter id="filter3_di_1_5325" x="121.117" y="10.9551" width="28.7656" height="27.5049" filterUnits="userSpaceOnUse" color-interpolation-filters="sRGB">
<feFlood flood-opacity="0" result="BackgroundImageFix"/>
<feColorMatrix in="SourceAlpha" type="matrix" values="0 0 0 0 0 0 0 0 0 0 0 0 0 0 0 0 0 0 127 0" result="hardAlpha"/>
<feOffset dx="0.5" dy="0.5"/>
<feGaussianBlur stdDeviation="0.5"/>
<feComposite in2="hardAlpha" operator="out"/>
<feColorMatrix type="matrix" values="0 0 0 0 0 0 0 0 0 0 0 0 0 0 0 0 0 0 0.4 0"/>
<feBlend mode="normal" in2="BackgroundImageFix" result="effect1_dropShadow_1_5325"/>
<feBlend mode="normal" in="SourceGraphic" in2="effect1_dropShadow_1_5325" result="shape"/>
<feColorMatrix in="SourceAlpha" type="matrix" values="0 0 0 0 0 0 0 0 0 0 0 0 0 0 0 0 0 0 127 0" result="hardAlpha"/>
<feOffset dx="1" dy="1"/>
<feGaussianBlur stdDeviation="0.5"/>
<feComposite in2="hardAlpha" operator="arithmetic" k2="-1" k3="1"/>
<feColorMatrix type="matrix" values="0 0 0 0 1 0 0 0 0 1 0 0 0 0 1 0 0 0 0.6 0"/>
<feBlend mode="normal" in2="shape" result="effect2_innerShadow_1_5325"/>
</filter>
<filter id="filter4_d_1_5325" x="161.117" y="10.9551" width="28.7656" height="27.5049" filterUnits="userSpaceOnUse" color-interpolation-filters="sRGB">
<feFlood flood-opacity="0" result="BackgroundImageFix"/>
<feColorMatrix in="SourceAlpha" type="matrix" values="0 0 0 0 0 0 0 0 0 0 0 0 0 0 0 0 0 0 127 0" result="hardAlpha"/>
<feOffset dx="0.5" dy="0.5"/>
<feGaussianBlur stdDeviation="0.5"/>
<feComposite in2="hardAlpha" operator="out"/>
<feColorMatrix type="matrix" values="0 0 0 0 0 0 0 0 0 0 0 0 0 0 0 0 0 0 0.2 0"/>
<feBlend mode="normal" in2="BackgroundImageFix" result="effect1_dropShadow_1_5325"/>
<feBlend mode="normal" in="SourceGraphic" in2="effect1_dropShadow_1_5325" result="shape"/>
</filter>
</defs>
</svg>
